<svg width="542" height="373" viewBox="0 0 542 373" fill="none" xmlns="http://www.w3.org/2000/svg">
	<path
		d="M191.48 372.023C80.7466 372.023 0.115723 284.335 0.115723 185.752C0.115723 86.6496 80.7466 0 191.48 0C253.834 0 298.987 24.9053 332.315 60.1878L279.099 112.593C260.822 92.8759 233.408 73.1593 191.48 73.1593C122.675 73.1593 75.9087 128.158 75.9087 185.752C75.9087 246.977 126.437 298.863 191.48 298.863C229.645 298.863 260.285 283.816 278.561 259.949L332.315 311.316C298.987 349.193 250.609 372.023 191.48 372.023ZM381.113 363.202V85.6119H452.606V117.781C466.044 92.876 507.435 84.0553 541.837 85.6119V158.252C498.296 150.988 456.368 177.45 456.368 221.034V363.202H381.113Z"
		fill="white" />
</svg>